<?xml version="1.0" encoding="iso-8859-1"?>
<!-- Generator: Adobe Illustrator 19.0.0, SVG Export Plug-In . SVG Version: 6.00 Build 0)  -->
<svg version="1.1" id="Capa_1" xmlns="http://www.w3.org/2000/svg" xmlns:xlink="http://www.w3.org/1999/xlink" x="0px" y="0px"
	 viewBox="0 0 512 512" style="enable-background:new 0 0 512 512;" xml:space="preserve">
<g>
	<g>
		<path style="fill:#A4C2F7;" d="M469.333,25.6c0-9.426-7.641-17.066-17.067-17.067H256v34.133h196.267
			C461.692,42.666,469.333,35.026,469.333,25.6L469.333,25.6z"/>
		<path style="fill:#A4C2F7;" d="M452.267,469.333H256v34.133h196.267c9.426,0,17.067-7.641,17.067-17.067
			S461.692,469.333,452.267,469.333z"/>
	</g>
	<g>
		<path style="fill:#E3E7F2;" d="M443.733,25.6c0-9.426-7.641-17.066-17.067-17.067H256v34.133h170.667
			C436.092,42.666,443.733,35.026,443.733,25.6L443.733,25.6z"/>
		<path style="fill:#E3E7F2;" d="M426.667,469.333H256v34.133h170.667c9.426,0,17.067-7.641,17.067-17.067
			S436.092,469.333,426.667,469.333z"/>
	</g>
	<g>
		<circle style="fill:#428DFF;" cx="281.6" cy="460.8" r="8.533"/>
		<circle style="fill:#428DFF;" cx="315.733" cy="460.8" r="8.533"/>
		<circle style="fill:#428DFF;" cx="349.867" cy="460.8" r="8.533"/>
		<circle style="fill:#428DFF;" cx="384" cy="460.8" r="8.533"/>
		<circle style="fill:#428DFF;" cx="298.667" cy="443.733" r="8.533"/>
		<circle style="fill:#428DFF;" cx="332.8" cy="443.733" r="8.533"/>
		<circle style="fill:#428DFF;" cx="366.933" cy="443.733" r="8.533"/>
		<circle style="fill:#428DFF;" cx="281.6" cy="281.6" r="8.533"/>
		<circle style="fill:#428DFF;" cx="298.667" cy="187.733" r="8.533"/>
		<circle style="fill:#428DFF;" cx="332.8" cy="187.733" r="8.533"/>
		<circle style="fill:#428DFF;" cx="315.733" cy="170.667" r="8.533"/>
		<circle style="fill:#428DFF;" cx="332.8" cy="153.6" r="8.533"/>
		<circle style="fill:#428DFF;" cx="298.667" cy="221.867" r="8.533"/>
		<circle style="fill:#428DFF;" cx="281.6" cy="204.8" r="8.533"/>
		<circle style="fill:#428DFF;" cx="315.733" cy="204.8" r="8.533"/>
		<circle style="fill:#428DFF;" cx="281.6" cy="307.2" r="8.533"/>
		<circle style="fill:#428DFF;" cx="281.6" cy="332.8" r="8.533"/>
		<circle style="fill:#428DFF;" cx="281.6" cy="358.4" r="8.533"/>
		<circle style="fill:#428DFF;" cx="281.6" cy="384" r="8.533"/>
		<circle style="fill:#428DFF;" cx="281.6" cy="409.6" r="8.533"/>
		<circle style="fill:#428DFF;" cx="315.733" cy="426.667" r="8.533"/>
		<circle style="fill:#428DFF;" cx="349.867" cy="426.667" r="8.533"/>
		<path style="fill:#428DFF;" d="M204.8,110.933h-42.667c-4.713,0-8.533-3.821-8.533-8.533c0-4.713,3.821-8.533,8.533-8.533H204.8
			c4.713,0,8.533,3.821,8.533,8.533C213.333,107.113,209.513,110.933,204.8,110.933z"/>
		<path style="fill:#428DFF;" d="M204.8,170.667h-85.333c-4.713,0-8.533-3.821-8.533-8.533c0-4.713,3.82-8.533,8.533-8.533H204.8
			c4.713,0,8.533,3.821,8.533,8.533C213.333,166.846,209.513,170.667,204.8,170.667z"/>
		<path style="fill:#428DFF;" d="M204.8,230.4h-128c-4.713,0-8.533-3.821-8.533-8.533c0-4.713,3.821-8.533,8.533-8.533h128
			c4.713,0,8.533,3.821,8.533,8.533C213.333,226.579,209.513,230.4,204.8,230.4z"/>
		<path style="fill:#428DFF;" d="M204.8,290.133H42.667c-4.713,0-8.533-3.821-8.533-8.533s3.821-8.533,8.533-8.533H204.8
			c4.713,0,8.533,3.82,8.533,8.533S209.513,290.133,204.8,290.133z"/>
		<path style="fill:#428DFF;" d="M204.8,349.867H93.867c-4.713,0-8.533-3.821-8.533-8.533s3.821-8.533,8.533-8.533H204.8
			c4.713,0,8.533,3.82,8.533,8.533S209.513,349.867,204.8,349.867z"/>
		<path style="fill:#428DFF;" d="M204.8,409.6h-59.733c-4.713,0-8.533-3.821-8.533-8.533s3.821-8.533,8.533-8.533H204.8
			c4.713,0,8.533,3.82,8.533,8.533S209.513,409.6,204.8,409.6z"/>
		<path style="fill:#428DFF;" d="M452.267,51.2H256c-4.713,0-8.533-3.821-8.533-8.533s3.821-8.533,8.533-8.533h196.267
			c4.713,0,8.533-3.821,8.533-8.533s-3.82-8.533-8.533-8.533H256c-4.713,0-8.533-3.821-8.533-8.533S251.287,0,256,0h196.267
			c14.138,0,25.6,11.462,25.6,25.6S466.405,51.2,452.267,51.2L452.267,51.2z"/>
		<path style="fill:#428DFF;" d="M298.671,264.533c-4.069,0.004-7.574-2.866-8.374-6.856c-0.799-3.99,1.33-7.989,5.086-9.553
			c58.904-24.422,97.262-81.959,97.15-145.725V51.2H256c-4.713,0-8.533-3.821-8.533-8.533s3.821-8.533,8.533-8.533h145.067
			c2.263-0.001,4.434,0.898,6.035,2.499c1.6,1.6,2.499,3.771,2.499,6.035V102.4c0.128,70.659-42.377,134.417-107.65,161.475
			C300.912,264.31,299.797,264.534,298.671,264.533z"/>
		<path style="fill:#428DFF;" d="M401.067,477.867H256c-4.713,0-8.533-3.821-8.533-8.533c0-4.713,3.821-8.533,8.533-8.533h136.533
			v-51.2c0.112-63.766-38.246-121.303-97.15-145.725c-2.813-1.173-4.787-3.758-5.178-6.781c-0.391-3.023,0.861-6.025,3.283-7.875
			s5.648-2.267,8.462-1.094c65.273,27.058,107.778,90.816,107.65,161.475v59.733c0.001,2.263-0.898,4.434-2.499,6.035
			C405.501,476.968,403.33,477.867,401.067,477.867L401.067,477.867z"/>
		<path style="fill:#428DFF;" d="M452.267,512H256c-4.713,0-8.533-3.82-8.533-8.533c0-4.713,3.821-8.533,8.533-8.533h196.267
			c4.713,0,8.533-3.82,8.533-8.533s-3.82-8.533-8.533-8.533H256c-4.713,0-8.533-3.821-8.533-8.533c0-4.713,3.821-8.533,8.533-8.533
			h196.267c14.138,0,25.6,11.462,25.6,25.6S466.405,512,452.267,512L452.267,512z"/>
	</g>
</g>
<g>
</g>
<g>
</g>
<g>
</g>
<g>
</g>
<g>
</g>
<g>
</g>
<g>
</g>
<g>
</g>
<g>
</g>
<g>
</g>
<g>
</g>
<g>
</g>
<g>
</g>
<g>
</g>
<g>
</g>
</svg>
