<svg enable-background="new 0 0 110 110" height="512" viewBox="0 0 110 110" width="512" xmlns="http://www.w3.org/2000/svg"><path d="m70.1638489 90.2395859h-37.1924668c-2.8636417 0-5.1850815-2.3214417-5.1850815-5.1850815v-68.8976841c0-2.8636408 2.3214397-5.1850805 5.1850815-5.1850805h37.1924667c2.8636398 0 5.1850815 2.3214397 5.1850815 5.1850805v68.8976822c.0000001 2.8636417-2.3214416 5.1850834-5.1850814 5.1850834z" fill="#ededed"/><path d="m31.017283 21.699362h41.100666v57.812599h-41.100666z" fill="#4da0dc"/><path d="m56.7940521 15.5535326h-10.4529304c-.555088 0-1.0050354.4501162-1.0050354 1.0050344 0 .5553665.4499474 1.0054836 1.0050354 1.0054836h10.4529305c.555088 0 1.0050926-.4501171 1.0050926-1.0054836-.0000001-.5549182-.4500046-1.0050344-1.0050927-1.0050344z" fill="#293b44"/><path d="m53.0076675 82.2003632h-2.8801041c-.6261482 0-1.1336975.5073166-1.1336975 1.133461v2.8801956c0 .626152.5075493 1.1338348 1.1336975 1.1338348h2.8801041c.6260986 0 1.1336937-.5076828 1.1336937-1.1338348v-2.8801956c0-.6261445-.507595-1.133461-1.1336937-1.133461z" fill="#293b44"/><g fill="#feda6f"><path d="m44.453167 29.5575924c.2540855-.2476654.113884-.6791821-.2372932-.7302341l-2.5169258-.3655739c-.1394463-.020359-.2600098-.1078777-.3223457-.2342949l-1.1256256-2.280653c-.157032-.3181686-.6108093-.3181686-.7678413 0l-1.1256256 2.280653c-.062336.1264172-.1829033.2139359-.3223457.2342949l-2.5169258.3655739c-.3511772.0510521-.4913826.4825687-.2372971.7302341l1.8212967 1.7752953c.1008911.0984573.1469269.2403717.1231117.3789444l-.4299202 2.5070477c-.0600204.3494682.3071136.6162796.6211777.4512672l2.2512131-1.1836281c.1247444-.0656395.2737236-.0656395.3984718 0l2.2512131 1.1836281c.3141022.1650124.6811943-.101799.6211777-.4512672l-.4299202-2.5070477c-.0238152-.1385727.0222206-.2804871.1231117-.3789444z"/><path d="m56.1537285 29.5575924c.2540855-.2476654.1138802-.6791821-.2372971-.7302341l-2.5169258-.3655739c-.1394424-.020359-.2600098-.1078777-.3223457-.2342949l-1.1256256-2.280653c-.157032-.3181686-.6108093-.3181686-.7678413 0l-1.1256256 2.280653c-.0623322.1264172-.1828995.2139359-.3223457.2342949l-2.5169258.3655739c-.3511734.0510521-.4913788.4825687-.2372932.7302341l1.8212929 1.7752953c.1008911.0984573.1469307.2403717.1231117.3789444l-.4299202 2.5070477c-.0600166.3494682.3071136.6162796.6211777.4512672l2.2512169-1.1836281c.1247444-.0656395.2737236-.0656395.398468 0l2.2512131 1.1836281c.314106.1650124.6811981-.101799.6211815-.4512672l-.429924-2.5070477c-.0238152-.1385727.0222244-.2804871.1231117-.3789444z"/><path d="m67.8542862 29.5575924c.2540894-.2476654.113884-.6791821-.2372971-.7302341l-2.516922-.3655739c-.1394424-.020359-.2600098-.1078777-.3223495-.2342949l-1.1256218-2.280653c-.1570358-.3181686-.6108093-.3181686-.7678413 0l-1.1256294 2.280653c-.0623322.1264172-.1828995.2139359-.3223419.2342949l-2.5169258.3655739c-.3511772.0510521-.4913826.4825687-.2372971.7302341l1.8212967 1.7752953c.1008873.0984573.1469269.2403717.1231079.3789444l-.4299202 2.5070477c-.0600166.3494682.3071136.6162796.6211777.4512672l2.2512169-1.1836281c.1247444-.0656395.2737236-.0656395.398468 0l2.2512131 1.1836281c.3141022.1650124.6811981-.101799.6211777-.4512672l-.4299164-2.5070477c-.023819-.1385727.0222244-.2804871.1231079-.3789444z"/><path d="m44.453167 40.9268227c.2540855-.2476654.113884-.679184-.2372932-.7302361l-2.5169258-.3655739c-.1394463-.020359-.2600098-.1078758-.3223457-.2342949l-1.1256256-2.2806511c-.157032-.3181686-.6108093-.3181686-.7678413 0l-1.1256256 2.2806511c-.062336.1264191-.1829033.2139359-.3223457.2342949l-2.5169258.3655739c-.3511772.0510521-.4913826.4825706-.2372971.7302361l1.8212967 1.7752953c.1008911.0984573.1469269.2403717.1231117.3789444l-.4299202 2.5070457c-.0600204.3494682.3071136.6162796.6211777.4512711l2.2512131-1.1836319c.1247444-.0656395.2737236-.0656395.3984718 0l2.2512131 1.1836319c.3141022.1650085.6811943-.1018028.6211777-.4512711l-.4299202-2.5070457c-.0238152-.1385727.0222206-.2804871.1231117-.3789444z"/><path d="m56.1537285 40.9268227c.2540855-.2476654.1138802-.679184-.2372971-.7302361l-2.5169258-.3655739c-.1394424-.020359-.2600098-.1078758-.3223457-.2342949l-1.1256256-2.2806511c-.157032-.3181686-.6108093-.3181686-.7678413 0l-1.1256256 2.2806511c-.0623322.1264191-.1828995.2139359-.3223457.2342949l-2.5169258.3655739c-.3511734.0510521-.4913788.4825706-.2372932.7302361l1.8212929 1.7752953c.1008911.0984573.1469307.2403717.1231117.3789444l-.4299202 2.5070457c-.0600166.3494682.3071136.6162796.6211777.4512711l2.2512169-1.1836319c.1247444-.0656395.2737236-.0656395.398468 0l2.2512131 1.1836319c.314106.1650085.6811981-.1018028.6211815-.4512711l-.429924-2.5070457c-.0238152-.1385727.0222244-.2804871.1231117-.3789444z"/><path d="m67.8542862 40.9268227c.2540894-.2476654.113884-.679184-.2372971-.7302361l-2.516922-.3655739c-.1394424-.020359-.2600098-.1078758-.3223495-.2342949l-1.1256218-2.2806511c-.1570358-.3181686-.6108093-.3181686-.7678413 0l-1.1256294 2.2806511c-.0623322.1264191-.1828995.2139359-.3223419.2342949l-2.5169258.3655739c-.3511772.0510521-.4913826.4825706-.2372971.7302361l1.8212967 1.7752953c.1008873.0984573.1469269.2403717.1231079.3789444l-.4299202 2.5070457c-.0600166.3494682.3071136.6162796.6211777.4512711l2.2512169-1.1836319c.1247444-.0656395.2737236-.0656395.398468 0l2.2512131 1.1836319c.3141022.1650085.6811981-.1018028.6211777-.4512711l-.4299164-2.5070457c-.023819-.1385727.0222244-.2804871.1231079-.3789444z"/></g><path d="m37.649929 52.254631h27.835369v3.653392h-27.835369z" fill="#4288b9"/><path d="m37.649929 60.344284h13.917685v3.653392h-13.917685z" fill="#4288b9"/><path d="m54.0289383 77.8108215 10.6011734 11.5757904.5531464 5.7613525h14.9997482l1.4706802-14.1717758v-15.5068435c0-1.3717499-1.1121292-2.4839859-2.4839783-2.4839859-1.3719025 0-2.4839859 1.112236-2.4839859 2.4839859v-1.8228912c0-1.3717499-1.1121292-2.4839821-2.4840317-2.4839821-1.3718491 0-2.4839859 1.1122322-2.4839859 2.4839821v-.6076279c0-1.3717537-1.1121292-2.4839821-2.4840317-2.4839821-1.3718491 0-2.4839783 1.1122284-2.4839783 2.4839821v-11.2542191c0-1.3721428-1.1121368-2.4839859-2.4839859-2.4839859-1.3718987 0-2.4840317 1.1118431-2.4840317 2.4839859v24.5408936l-2.9353142-2.1877747c1.7131767-2.6076965 1.4363861-6.0454712-.6717796-8.345253l-.1038551-.1135635-4.7906456 7.2002335c-1.0587157 1.5910797-.7344626 3.7265625.7488557 4.9316787z" fill="#feda6f"/><path d="m62.357136 91.582047h19.856564v7.446211h-19.856564z" fill="#de594e"/></svg>