<svg enable-background="new 0 0 100 100" height="512" viewBox="0 0 100 100" width="512" xmlns="http://www.w3.org/2000/svg"><circle cx="50.001" cy="42.758" fill="#344e5c" r="25.823"/><circle cx="50.001" cy="42.758" fill="#344e5c" r="21.885"/><circle cx="50.001" cy="42.758" fill="#4388b9" r="20.572"/><path d="m44.356846 66.58577h11.287568v7.104256h-11.287568z" fill="#344e5c"/><path d="m55.6411858 75.5354919v19.1453552c-3.7687492.4356079-7.5528946.4203033-11.2834778-.0153046v-19.1300506z" fill="#db584d"/><g fill="#344e5c"><path d="m81.6296463 42.3759918h-3.0500107c-.2142639 0-.3900757.1679726-.3900757.3822289 0 .2067947.1758118.3822327.3900757.3822327h3.0500107c.2142563 0 .3822327-.1754379.3822327-.3822327 0-.2142563-.1679764-.3822289-.3822327-.3822289z"/><path d="m87.951767 42.3759918h-.1985779c-.2142639 0-.3900757.1679726-.3900757.3822289 0 .2067947.1758118.3822327.3900757.3822327h.1985779c.2064209 0 .3822327-.1754379.3822327-.3822327-.0000001-.2142563-.1758118-.3822289-.3822327-.3822289z"/><path d="m84.6875 43.1404533c.2142563 0 .382225-.1754379.382225-.3822327 0-.2142563-.1679688-.3822289-.382225-.3822289-.2064209 0-.3743973.1679726-.3743973.3822289 0 .2067948.1679764.3822327.3743973.3822327z"/><circle cx="18.164" cy="42.758" r=".382"/><path d="m21.2217846 42.3759918c-.206419 0-.3822308.1679726-.3822308.3822289 0 .2067947.1758118.3822327.3822308.3822327h.2064209c.206419 0 .3822308-.1754379.3822308-.3822327 0-.2142563-.1758118-.3822289-.3822308-.3822289z"/><path d="m15.4883146 42.7582207c0-.2142563-.1679726-.3822289-.3822317-.3822289h-3.0578508c-.2064199 0-.3822308.1679726-.3822308.3822289 0 .2067947.1758108.3822327.3822308.3822327h3.0578508c.2142592-.0000001.3822317-.175438.3822317-.3822327z"/><path d="m76.4926682 33.1180763c.0533752.1455765.1985779.2523346.3590851.2523346.0459137 0 .0918274-.0074654.1298981-.0306091l5.7487793-2.0865955c.0992889-.0380726.1758118-.107502.2142563-.1985817.0459137-.0918236.0459137-.1993275.0153046-.291151-.0690536-.1911163-.2982483-.2978725-.4893646-.2291908l-5.7487717 2.0873413c-.1989519.0761489-.2982484.2978705-.2291871.4964522z"/><path d="m85.4751053 30.2289467c.0380707 0 .0839844-.008213.1298981-.0231438.1452026-.053751.252327-.1985817.252327-.3590889 0-.0462856-.0078354-.0918255-.02314-.1298981-.0765228-.1911163-.2982407-.2986183-.4968262-.2299366-.1452026.053751-.2444916.1993275-.2444916.3598347 0 .0455399.0074615.0918255.0227661.1299.0533829.1530418.1985855.2523327.3594666.2523327z"/><path d="m22.8272324 52.2378578c-.1530418.0612183-.2523327.2060471-.2523327.3590889 0 .0455399.0078392.0918236.0231419.1373634.0533791.1455765.1985817.2448692.3590889.2448692.0459118 0 .0918255-.0074654.1299-.0231438.1530418-.0530052.2523308-.1911163.2523308-.3516235 0-.0455399-.0074654-.0918236-.022768-.1373634-.0690557-.1911163-.2982465-.2986183-.4893609-.2291908z"/><path d="m19.9530315 53.2852631-5.7413101 2.094059c-.1985807.0686836-.3057098.2904053-.2370281.4897346.0612173.1522942.2064199.2523308.3669271.2523308.0384474 0 .0839863-.0082092.129899-.0231438l5.7413101-2.0948067c.1985798-.0686798.3057098-.2904053.2291889-.488987-.0686816-.1911163-.2978724-.2986182-.4889869-.2291869z"/><path d="m75.4038315 21.8250809c.0865936 0 .1735687-.0291138.2452393-.0895844l1.1713257-.9832001c.0003738 0 .0007477-.0007477.0011215-.0007477l1.7558746-1.4729347c.1616287-.1351242.1829071-.3762589.0474091-.5382595s-.375885-.1829033-.5386353-.0470314l-1.7569962 1.4736805c-.0003738 0-.0007477 0-.0011215.0007458l-1.1702042.9824543c-.1620026.1358719-.1829071.3770065-.0470352.5382595.0754013.090332.1836472.1366177.2930222.1366177z"/><path d="m74.5251465 22.1796913c-.1351242-.1612549-.3755112-.183651-.5382614-.0470333l-2.342659 1.9656544c-.1616287.1358719-.1829071.3762589-.0470352.5382595.0754013.090332.1836548.1366177.2930222.1366177.0866013 0 .1735687-.0291138.2452393-.0895844l2.342659-1.9656544c.1616286-.1358719.182907-.3762588.0470351-.5382595z"/><path d="m23.0258121 64.894043-2.342659 1.9656601c-.1616268.1358719-.1829052.3762589-.0470333.5382538.0754013.090332.183651.1366196.2930202.1366196.0865993 0 .1735706-.0291138.2452393-.0895844l2.3426609-1.9656525c.1616268-.1358719.1829033-.3762589.0470314-.5382614-.1351242-.1612549-.3755111-.1836472-.5382595-.0470352z"/><path d="m27.1250954 61.4547119-1.7569962 1.4736786c-.0003719 0-.0007458 0-.0011196.0007477l-1.1702099.9824524c-.1620007.1358719-.1829033.3770065-.0470333.5382614.0754013.090332.183651.1366196.2930202.1366196.0865993 0 .1735725-.0291138.2452393-.0895844l1.1713314-.9832039c.0003719 0 .0007458-.0007477.0011196-.0007477l1.7558746-1.4729347c.1616268-.1351242.1829033-.3762589.0474052-.5382576-.1354979-.1612549-.3758849-.183651-.5386313-.0470314z"/><path d="m68.8708038 10.4522057c.1377411 0 .2676392-.0768948.336319-.1911163.0306091-.0612164.0533829-.129899.0459137-.1985807 0-.1381111-.0686798-.2605448-.1836472-.3292265-.1832809-.0992908-.4277725-.0306082-.5274353.1455765-.0306091.0612164-.0533752.129899-.0533752.1985807.0074615.129899.0765152.2523327.1911163.3210144.0612107.030609.1298981.0537519.1911087.0537519z"/><path d="m67.7166443 12.615695c-.0306015-.0992908-.0918198-.183651-.1836472-.2291899-.1758118-.1075029-.4203033-.0388203-.5199661.1373644l-3.0578537 5.2974882c-.1067543.1836491-.0380745.4128399.1377411.5195961.0612106.0388203.1224289.053751.1911163.053751.1377335 0 .2676315-.076149.336319-.1911163l3.0578461-5.2974873c.0459137-.0843601.0612182-.1911163.0384445-.2904062z"/><path d="m34.2714043 69.9959412c-.1758118-.1067581-.4128418-.0380783-.5199699.1373596l-3.0578518 5.2982407c-.0533772.0918198-.0612164.1911087-.0380726.2904053.0227699.0992889.0914516.1836472.1758118.2366562.0608425.0306015.1298981.0462799.1911144.0462799.1373653 0 .2672634-.0686798.336319-.1911163l3.0578518-5.298233c.1067542-.1828996.0459136-.4120943-.1452027-.5195924z"/><path d="m35.8003273 67.3509293c-.1758118-.1067581-.4206772-.0380783-.5199661.1373596-.0306091.0612183-.0533791.1306458-.0533791.1993332.0074654.1373596.0761452.252327.1911163.3210144.0608406.0380707.1298981.0530014.1911163.0530014.1373634 0 .2672615-.076149.3363152-.1911163.0306091-.0604706.0533791-.1298981.0459137-.1985779 0-.1373673-.076519-.2597962-.1911163-.3210144z"/><path d="m55.5598984 11.2308521c-.2071648-.0440454-.4064941.1022768-.4426994.3098164l-.5307961 3.0108185c-.036953.2082863.101902.4061213.3098183.4427023.0223961.0044794.0447922.0059719.0668144.0059719.1821556 0 .3434105-.1306458.375885-.3157883l.5307961-3.0108185c.0369529-.2082863-.1019059-.4061212-.3098183-.4427023z"/><path d="m56.6573219 5.007648c-.2075424-.0432997-.4064941.1022768-.4427032.3098164l-.5311661 3.0115647c-.036953.2082863.101902.4061213.3098145.4427023.0223961.0044794.044796.0059719.0668182.0059719.1821556 0 .3434105-.1306458.375885-.3157883l.5311661-3.0115657c.036953-.2082863-.101902-.4061207-.3098145-.4427013z"/><path d="m44.4919853 9.3585157c0-.0223961 0-.0530043-.0074654-.0761471l-.3975334-2.2627802c-.0384483-.1985812-.2295647-.3441577-.4434509-.3060837-.2064171.0306082-.3441544.2299361-.3057098.4434481l.3975372 2.2553148c.0306091.18365.1911163.313549.3743935.313549h.0690536c.1758118-.030609.3057099-.1911162.3131752-.3673009z"/><path d="m44.5763474 11.9811306c-.2064209.0380735-.3516235.2366552-.313549.4434481l.3975334 2.2627802c.0306091.18365.1911163.313549.3743935.313549.0231438 0 .0459137 0 .0690536-.0082121.0992928-.0149307.1911163-.076148.2444954-.1605072.0612183-.0836134.0839844-.1829033.0686836-.2829409l-.3975372-2.2627802c-.0380746-.1985807-.2291909-.3516225-.4430733-.3053369z"/><path d="m32.7040291 13.5712729c.0686836.1142216.1989555.1911154.336319.1911154.0612183 0 .1299019-.0231428.1911163-.053751.1145935-.0686817.183651-.1911154.1911163-.3210144 0-.076148-.0153046-.1455765-.0533791-.1985807l-1.1466942-1.9880514c-.0992889-.1754379-.3441563-.2441206-.519968-.1373644-.0914516.0455389-.152668.129899-.1832771.2291889-.0231419.0992908-.0078392.1985817.0380745.2904072z"/><path d="m34.8981285 15.834053c-.0992928-.1761847-.3441582-.2448673-.5199699-.1381111-.1832771.1000366-.2444916.3366928-.1452026.5203419l1.1466942 1.9873047c.0686836.1149673.1989555.1911163.336319.1911163.0690536 0 .1298981-.0149307.1911163-.053751.0843582-.0530052.1530418-.1299.1758118-.2366562.02314-.0918255.0153046-.1985798-.0380745-.2829399z"/><path d="m68.1597214 73.4516983c-.0992889-.1761856-.3437805-.2448654-.5195923-.1455765-.0918274.0537491-.1530457.1373672-.1836548.2374039-.0227661.0910797-.0074615.1985779.0384521.282196l1.1466904 1.9880447c.0686798.1224365.1985855.1911163.336319.1911163.0612183 0 .1298981-.0156784.1911163-.0462799.1832809-.1067581.2444916-.3434143.1373672-.5270615z"/><path d="m65.4841003 68.8111725c-.0992889-.1761856-.3437805-.2366562-.5195923-.1373672-.0918274.0455399-.1530457.1298981-.1836472.2291946-.0227737.0992889-.0074692.2060394.0384445.2904053l1.1466904 1.9873047c.0686874.1149673.1985855.1911163.336319.1911163.0612183 0 .1298981-.0149307.1911163-.053009.1220627-.0686798.1911163-.1993256.1911163-.3366928 0-.0686798-.02314-.1298981-.0537491-.1836472z"/><path d="m22.0093918 19.7705879c.0686817.053751.1605072.0918255.2444935.0918255.1145935 0 .2217236-.0530052.2982445-.1373653.1298981-.1605072.1067562-.4053745-.053751-.542738l-1.322506-1.1160851c-.1605072-.1299-.4050007-.1075039-.542738.053751-.1299.1605072-.1145954.4046268.053751.5345268z"/><path d="m24.2568665 20.6574841c-.1530418-.1298981-.4053745-.1067562-.5352726.0462856-.0612164.0686817-.0918255.1522961-.0918255.2441216 0 .1149673.0459118.2217236.1377373.2986183l4.0974159 3.4400806c.0690556.0530052.1605072.0836143.2448673.0836143.1145954 0 .2217236-.0455399.2978706-.1373653.0612183-.0761471.0918255-.1761837.0843601-.2754745-.0078392-.0992908-.053751-.1911163-.1377373-.259798z"/><path d="m75.2156982 63.4218597c-.1526642-.1381111-.4049988-.1149712-.5348969.045536-.0537567.0686836-.0918274.1530418-.0918274.2374039 0 .1142197.0533752.2291908.1377411.2978706l4.0974121 3.4400864c.0686798.0612106.1605072.0918198.2444916.0918198.1149673 0 .2217255-.0462875.2982483-.1373596.0612183-.0768967.0918274-.1761856.0839844-.2754745-.0074615-.1067581-.0533752-.1985855-.1298981-.2598038z"/><path d="m72.1350784 60.8298531c-.1530457-.1299019-.4049988-.1067581-.5427399.0462837-.1298981.1679726-.107132.4053764.0533829.5427399l1.3225021 1.1160851c.0690536.0537529.1605072.0843582.2448654.0843582.1145935 0 .2217255-.0462837.2978745-.1381073.1302719-.1605072.1149673-.4046288-.0459137-.5352745z"/><path d="m19.7865505 32.1677246 3.2325439 1.1765556c.0429249.0156784.0873451.0231438.1306458.0231438.1560268 0 .3027229-.0963058.359087-.2515869.0724163-.1985817-.0298615-.4173164-.2284431-.4897346l-3.232542-1.1765537c-.1963406-.0709229-.4173183.0298615-.4897346.2284431-.0724145.1985798.0298632.4173183.228443.4897327z"/><path d="m18.615221 31.7421932c.0380745.0156784.0839863.0231438.1299.0231438.152668 0 .2978706-.0992908.359087-.2523327.0153046-.0455399.0231438-.0843601.0231438-.1298981 0-.1605072-.0996647-.3060837-.2523327-.3590889-.1989536-.0768948-.4206791.0306072-.4893608.2291889-.0153046.0380745-.0227699.0836143-.0227699.1299-.0000001.1530419.0992908.2978707.2523326.359087z"/><path d="m14.2079887 30.1371212 3.232542 1.1765556c.0429268.0156765.087347.0231438.1306458.0231438.1560287 0 .3027248-.0963058.3590889-.2515869.0724144-.1985817-.0298615-.4173183-.2284431-.4897346l-3.232542-1.1765556c-.1974621-.0716686-.4176922.0298615-.4897346.2284431-.0724145.1985816.0298623.4173202.228443.4897346z"/><path d="m85.7935028 55.3793221-3.2329178-1.1765556c-.1974564-.0716667-.4176865.0306091-.4897308.2284431-.0724182.1985817.0298615.4173203.2284393.4897346l3.2329178 1.1765556c.0429306.0156784.0873489.0231438.1306458.0231438.1560287 0 .3027267-.0963058.3590927-.2515869.0724106-.1985817-.0298615-.4173202-.228447-.4897346z"/><path d="m81.3851547 53.77425c-.1989594-.0686836-.4128418.0306091-.4893646.229187-.0153046.0462875-.0227661.0918274-.0227661.1299019 0 .1605072.0992889.3060837.2519608.3590851.0459061.0156784.0918198.0231438.1302719.0231438.1605072 0 .3057098-.0918236.3590851-.2523308.0153046-.0380745.02314-.0836143.02314-.1298981-.0000001-.1530418-.0918199-.3053398-.2523271-.3590889z"/><path d="m80.2149429 53.3487167-3.2325439-1.1765556c-.1970901-.0724144-.4176941.0306091-.4897308.2284431-.0724182.1985817.0298615.4173203.2284393.4897346l3.2325439 1.1765556c.042923.0156784.0873489.0231438.1306458.0231438.1560287 0 .3027267-.0963058.3590851-.2515869.0724182-.1985816-.0298615-.4173202-.2284394-.4897346z"/></g><path d="m65.5244064 41.3330956c-8.5734711-8.1222305-22.4737778-8.1222305-31.0472488 0l-1.5046158 1.4253426 1.5046158 1.4253426c8.5734711 8.1220436 22.4737778 8.1220436 31.0472488 0l1.5045242-1.4253426z" fill="#e6e7e8"/><g fill="#344e5c"><circle cx="50.001" cy="42.758" r="6.199"/><circle cx="50.001" cy="42.758" r="4.219"/><circle cx="47.28" cy="40.038" r="1.192"/></g><path d="m56.3247299 72.4738235h-12.6481895c-1.3558311 0-2.4549332 1.0991058-2.4549332 2.4548492 0 1.3559189 1.099102 2.4550171 2.4549332 2.4550171h12.6481895c1.3558311 0 2.454937-1.0990982 2.454937-2.4550171 0-1.3557433-1.0991058-2.4548492-2.454937-2.4548492z" fill="#273b44"/></svg>